<svg version="1.1" viewBox="0.0 0.0 979.0 605.0" fill="none" stroke="none" stroke-linecap="square" stroke-miterlimit="10" width="979" height="605" xmlns:xlink="http://www.w3.org/1999/xlink" xmlns="http://www.w3.org/2000/svg"><path fill="#ffffff" fill-opacity="0.0" d="M0 0L979.0 0L979.0 605.0L0 605.0L0 0Z" fill-rule="nonzero"/><clipPath id="id_0"><path d="M79.25 40.75L948.75 40.75L948.75 516.25L79.25 516.25L79.25 40.75Z" clip-rule="nonzero"/></clipPath><path fill="#46bdc6" fill-opacity="0.3019608" clip-path="url(#id_0)" d="M79.25 40.75L95.97115 49.86918L112.69231 58.988358L129.41347 68.10754L146.13461 77.226715L162.85577 86.345894L179.57692 95.465065L196.29808 104.58424L213.01923 113.70342L229.74039 122.8226L246.46153 131.94179L263.18268 141.06096L279.90384 150.18013L296.625 159.29932L313.34616 168.41849L330.06732 177.53767L346.78845 186.65685L363.5096 195.77603L380.23077 204.8952L396.95193 214.01439L413.67307 223.13356L430.39423 232.25275L447.1154 241.37192L463.83655 250.49109L480.55768 259.61026L497.27884 268.72946L514.0 277.84863L530.7211 286.9678L547.4423 296.08698L564.16345 305.20618L580.88464 314.32535L597.6058 323.44452L614.3269 332.5637L631.0481 341.6829L647.7692 350.80206L664.49036 359.92123L681.21155 369.0404L697.9327 378.15958L714.6539 387.27878L731.375 396.39795L748.0961 405.51712L764.8173 414.6363L781.53845 423.7555L798.25964 432.87466L814.9808 441.99384L831.7019 451.113L848.4231 460.23218L865.1442 469.35138L881.86536 478.47055L898.58655 487.58972L915.3077 496.7089L932.0289 505.8281L948.75 514.94727L948.75 516.25L932.0289 516.25L915.3077 516.25L898.58655 516.25L881.86536 516.25L865.1442 516.25L848.4231 516.25L831.7019 516.25L814.9808 516.25L798.25964 516.25L781.53845 516.25L764.8173 516.25L748.0961 516.25L731.375 516.25L714.6539 516.25L697.9327 516.25L681.21155 516.25L664.49036 516.25L647.7692 516.25L631.0481 516.25L614.3269 516.25L597.6058 516.25L580.88464 516.25L564.16345 516.25L547.4423 516.25L530.7211 516.25L514.0 516.25L497.27884 516.25L480.55768 516.25L463.83655 516.25L447.1154 516.25L430.39423 516.25L413.67307 516.25L396.95193 516.25L380.23077 516.25L363.5096 516.25L346.78845 516.25L330.06732 516.25L313.34616 516.25L296.625 516.25L279.90384 516.25L263.18268 516.25L246.46153 516.25L229.74039 516.25L213.01923 516.25L196.29808 516.25L179.57692 516.25L162.85577 516.25L146.13461 516.25L129.41347 516.25L112.69231 516.25L95.97115 516.25L79.25 516.25Z" fill-rule="nonzero"/><path stroke="#46bdc6" stroke-width="2.0" stroke-linecap="butt" clip-path="url(#id_0)" d="M79.25 40.75L95.97115 49.86918L112.69231 58.988358L129.41347 68.10754L146.13461 77.226715L162.85577 86.345894L179.57692 95.465065L196.29808 104.58424L213.01923 113.70342L229.74039 122.8226L246.46153 131.94179L263.18268 141.06096L279.90384 150.18013L296.625 159.29932L313.34616 168.41849L330.06732 177.53767L346.78845 186.65685L363.5096 195.77603L380.23077 204.8952L396.95193 214.01439L413.67307 223.13356L430.39423 232.25275L447.1154 241.37192L463.83655 250.49109L480.55768 259.61026L497.27884 268.72946L514.0 277.84863L530.7211 286.9678L547.4423 296.08698L564.16345 305.20618L580.88464 314.32535L597.6058 323.44452L614.3269 332.5637L631.0481 341.6829L647.7692 350.80206L664.49036 359.92123L681.21155 369.0404L697.9327 378.15958L714.6539 387.27878L731.375 396.39795L748.0961 405.51712L764.8173 414.6363L781.53845 423.7555L798.25964 432.87466L814.9808 441.99384L831.7019 451.113L848.4231 460.23218L865.1442 469.35138L881.86536 478.47055L898.58655 487.58972L915.3077 496.7089L932.0289 505.8281L948.75 514.94727" fill-rule="nonzero"/><path fill="#000000" fill-opacity="0.0" clip-path="url(#id_0)" d="M82.25 40.75C82.25 42.406853 80.90685 43.75 79.25 43.75C77.59315 43.75 76.25 42.406853 76.25 40.75C76.25 39.093147 77.59315 37.75 79.25 37.75C80.90685 37.75 82.25 39.093147 82.25 40.75Z" fill-rule="nonzero"/><path fill="#000000" fill-opacity="0.0" clip-path="url(#id_0)" d="M98.97115 49.86918C98.97115 51.52603 97.628006 52.86918 95.97115 52.86918C94.3143 52.86918 92.97115 51.52603 92.97115 49.86918C92.97115 48.212322 94.3143 46.86918 95.97115 46.86918C97.628006 46.86918 98.97115 48.212322 98.97115 49.86918Z" fill-rule="nonzero"/><path fill="#000000" fill-opacity="0.0" clip-path="url(#id_0)" d="M115.69231 58.988358C115.69231 60.64521 114.34916 61.988358 112.69231 61.988358C111.03545 61.988358 109.69231 60.64521 109.69231 58.988358C109.69231 57.3315 111.03545 55.988358 112.69231 55.988358C114.34916 55.988358 115.69231 57.3315 115.69231 58.988358Z" fill-rule="nonzero"/><path fill="#000000" fill-opacity="0.0" clip-path="url(#id_0)" d="M132.41347 68.10754C132.41347 69.76439 131.07031 71.10754 129.41347 71.10754C127.75661 71.10754 126.41346 69.76439 126.41346 68.10754C126.41346 66.45068 127.75661 65.10754 129.41347 65.10754C131.07031 65.10754 132.41347 66.45068 132.41347 68.10754Z" fill-rule="nonzero"/><path fill="#000000" fill-opacity="0.0" clip-path="url(#id_0)" d="M149.13461 77.226715C149.13461 78.88357 147.79147 80.226715 146.13461 80.226715C144.47777 80.226715 143.13461 78.88357 143.13461 77.226715C143.13461 75.569855 144.47777 74.226715 146.13461 74.226715C147.79147 74.226715 149.13461 75.569855 149.13461 77.226715Z" fill-rule="nonzero"/><path fill="#000000" fill-opacity="0.0" clip-path="url(#id_0)" d="M165.85577 86.345894C165.85577 88.00275 164.51262 89.345894 162.85577 89.345894C161.19891 89.345894 159.85577 88.00275 159.85577 86.345894C159.85577 84.68903 161.19891 83.345894 162.85577 83.345894C164.51262 83.345894 165.85577 84.68903 165.85577 86.345894Z" fill-rule="nonzero"/><path fill="#000000" fill-opacity="0.0" clip-path="url(#id_0)" d="M182.57692 95.465065C182.57692 97.121925 181.23378 98.465065 179.57692 98.465065C177.92007 98.465065 176.57692 97.121925 176.57692 95.465065C176.57692 93.80821 177.92007 92.465065 179.57692 92.465065C181.23378 92.465065 182.57692 93.80821 182.57692 95.465065Z" fill-rule="nonzero"/><path fill="#000000" fill-opacity="0.0" clip-path="url(#id_0)" d="M199.29808 104.58424C199.29808 106.241104 197.95493 107.58424 196.29808 107.58424C194.64122 107.58424 193.29808 106.241104 193.29808 104.58424C193.29808 102.92739 194.64122 101.58424 196.29808 101.58424C197.95493 101.58424 199.29808 102.92739 199.29808 104.58424Z" fill-rule="nonzero"/><path fill="#000000" fill-opacity="0.0" clip-path="url(#id_0)" d="M216.01923 113.70342C216.01923 115.360275 214.67609 116.70342 213.01923 116.70342C211.36238 116.70342 210.01923 115.360275 210.01923 113.70342C210.01923 112.04657 211.36238 110.70342 213.01923 110.70342C214.67609 110.70342 216.01923 112.04657 216.01923 113.70342Z" fill-rule="nonzero"/><path fill="#000000" fill-opacity="0.0" clip-path="url(#id_0)" d="M232.74039 122.8226C232.74039 124.479454 231.39723 125.8226 229.74039 125.8226C228.08353 125.8226 226.74039 124.479454 226.74039 122.8226C226.74039 121.16575 228.08353 119.8226 229.74039 119.8226C231.39723 119.8226 232.74039 121.16575 232.74039 122.8226Z" fill-rule="nonzero"/><path fill="#000000" fill-opacity="0.0" clip-path="url(#id_0)" d="M249.46153 131.94179C249.46153 133.59863 248.1184 134.94179 246.46153 134.94179C244.80469 134.94179 243.46153 133.59863 243.46153 131.94179C243.46153 130.28493 244.80469 128.94179 246.46153 128.94179C248.1184 128.94179 249.46153 130.28493 249.46153 131.94179Z" fill-rule="nonzero"/><path fill="#000000" fill-opacity="0.0" clip-path="url(#id_0)" d="M266.18268 141.06096C266.18268 142.71782 264.83954 144.06096 263.18268 144.06096C261.52585 144.06096 260.18268 142.71782 260.18268 141.06096C260.18268 139.4041 261.52585 138.06096 263.18268 138.06096C264.83954 138.06096 266.18268 139.4041 266.18268 141.06096Z" fill-rule="nonzero"/><path fill="#000000" fill-opacity="0.0" clip-path="url(#id_0)" d="M282.90384 150.18013C282.90384 151.83699 281.5607 153.18013 279.90384 153.18013C278.24698 153.18013 276.90384 151.83699 276.90384 150.18013C276.90384 148.52328 278.24698 147.18013 279.90384 147.18013C281.5607 147.18013 282.90384 148.52328 282.90384 150.18013Z" fill-rule="nonzero"/><path fill="#000000" fill-opacity="0.0" clip-path="url(#id_0)" d="M299.625 159.29932C299.625 160.95618 298.28186 162.29932 296.625 162.29932C294.96814 162.29932 293.625 160.95618 293.625 159.29932C293.625 157.64246 294.96814 156.29932 296.625 156.29932C298.28186 156.29932 299.625 157.64246 299.625 159.29932Z" fill-rule="nonzero"/><path fill="#000000" fill-opacity="0.0" clip-path="url(#id_0)" d="M316.34616 168.41849C316.34616 170.07535 315.00302 171.41849 313.34616 171.41849C311.6893 171.41849 310.34616 170.07535 310.34616 168.41849C310.34616 166.76164 311.6893 165.41849 313.34616 165.41849C315.00302 165.41849 316.34616 166.76164 316.34616 168.41849Z" fill-rule="nonzero"/><path fill="#000000" fill-opacity="0.0" clip-path="url(#id_0)" d="M333.06732 177.53767C333.06732 179.19452 331.72415 180.53767 330.06732 180.53767C328.41046 180.53767 327.06732 179.19452 327.06732 177.53767C327.06732 175.88081 328.41046 174.53767 330.06732 174.53767C331.72415 174.53767 333.06732 175.88081 333.06732 177.53767Z" fill-rule="nonzero"/><path fill="#000000" fill-opacity="0.0" clip-path="url(#id_0)" d="M349.78845 186.65685C349.78845 188.3137 348.4453 189.65685 346.78845 189.65685C345.13162 189.65685 343.78845 188.3137 343.78845 186.65685C343.78845 185.0 345.13162 183.65685 346.78845 183.65685C348.4453 183.65685 349.78845 185.0 349.78845 186.65685Z" fill-rule="nonzero"/><path fill="#000000" fill-opacity="0.0" clip-path="url(#id_0)" d="M366.5096 195.77603C366.5096 197.43288 365.16647 198.77603 363.5096 198.77603C361.85275 198.77603 360.5096 197.43288 360.5096 195.77603C360.5096 194.11917 361.85275 192.77603 363.5096 192.77603C365.16647 192.77603 366.5096 194.11917 366.5096 195.77603Z" fill-rule="nonzero"/><path fill="#000000" fill-opacity="0.0" clip-path="url(#id_0)" d="M383.23077 204.8952C383.23077 206.55206 381.88763 207.8952 380.23077 207.8952C378.5739 207.8952 377.23077 206.55206 377.23077 204.8952C377.23077 203.23836 378.5739 201.8952 380.23077 201.8952C381.88763 201.8952 383.23077 203.23836 383.23077 204.8952Z" fill-rule="nonzero"/><path fill="#000000" fill-opacity="0.0" clip-path="url(#id_0)" d="M399.95193 214.01439C399.95193 215.67123 398.60876 217.01439 396.95193 217.01439C395.29507 217.01439 393.95193 215.67123 393.95193 214.01439C393.95193 212.35753 395.29507 211.01439 396.95193 211.01439C398.60876 211.01439 399.95193 212.35753 399.95193 214.01439Z" fill-rule="nonzero"/><path fill="#000000" fill-opacity="0.0" clip-path="url(#id_0)" d="M416.67307 223.13356C416.67307 224.79042 415.32993 226.13356 413.67307 226.13356C412.01624 226.13356 410.67307 224.79042 410.67307 223.13356C410.67307 221.4767 412.01624 220.13356 413.67307 220.13356C415.32993 220.13356 416.67307 221.4767 416.67307 223.13356Z" fill-rule="nonzero"/><path fill="#000000" fill-opacity="0.0" clip-path="url(#id_0)" d="M433.39423 232.25275C433.39423 233.90959 432.0511 235.25275 430.39423 235.25275C428.73737 235.25275 427.39423 233.90959 427.39423 232.25275C427.39423 230.59589 428.73737 229.25275 430.39423 229.25275C432.0511 229.25275 433.39423 230.59589 433.39423 232.25275Z" fill-rule="nonzero"/><path fill="#000000" fill-opacity="0.0" clip-path="url(#id_0)" d="M450.1154 241.37192C450.1154 243.02878 448.77225 244.37192 447.1154 244.37192C445.45853 244.37192 444.1154 243.02878 444.1154 241.37192C444.1154 239.71506 445.45853 238.37192 447.1154 238.37192C448.77225 238.37192 450.1154 239.71506 450.1154 241.37192Z" fill-rule="nonzero"/><path fill="#000000" fill-opacity="0.0" clip-path="url(#id_0)" d="M466.83655 250.49109C466.83655 252.14795 465.49338 253.49109 463.83655 253.49109C462.1797 253.49109 460.83655 252.14795 460.83655 250.49109C460.83655 248.83424 462.1797 247.49109 463.83655 247.49109C465.49338 247.49109 466.83655 248.83424 466.83655 250.49109Z" fill-rule="nonzero"/><path fill="#000000" fill-opacity="0.0" clip-path="url(#id_0)" d="M483.55768 259.61026C483.55768 261.26712 482.21454 262.61026 480.55768 262.61026C478.90085 262.61026 477.55768 261.26712 477.55768 259.61026C477.55768 257.95343 478.90085 256.61026 480.55768 256.61026C482.21454 256.61026 483.55768 257.95343 483.55768 259.61026Z" fill-rule="nonzero"/><path fill="#000000" fill-opacity="0.0" clip-path="url(#id_0)" d="M500.27884 268.72946C500.27884 270.3863 498.9357 271.72946 497.27884 271.72946C495.62198 271.72946 494.27884 270.3863 494.27884 268.72946C494.27884 267.0726 495.62198 265.72946 497.27884 265.72946C498.9357 265.72946 500.27884 267.0726 500.27884 268.72946Z" fill-rule="nonzero"/><path fill="#000000" fill-opacity="0.0" clip-path="url(#id_0)" d="M517.0 277.84863C517.0 279.5055 515.65686 280.84863 514.0 280.84863C512.34314 280.84863 511.0 279.5055 511.0 277.84863C511.0 276.19177 512.34314 274.84863 514.0 274.84863C515.65686 274.84863 517.0 276.19177 517.0 277.84863Z" fill-rule="nonzero"/><path fill="#000000" fill-opacity="0.0" clip-path="url(#id_0)" d="M533.7211 286.9678C533.7211 288.62466 532.378 289.9678 530.7211 289.9678C529.0643 289.9678 527.7211 288.62466 527.7211 286.9678C527.7211 285.31094 529.0643 283.9678 530.7211 283.9678C532.378 283.9678 533.7211 285.31094 533.7211 286.9678Z" fill-rule="nonzero"/><path fill="#000000" fill-opacity="0.0" clip-path="url(#id_0)" d="M550.4423 296.08698C550.4423 297.74384 549.0992 299.08698 547.4423 299.08698C545.78546 299.08698 544.4423 297.74384 544.4423 296.08698C544.4423 294.43015 545.78546 293.08698 547.4423 293.08698C549.0992 293.08698 550.4423 294.43015 550.4423 296.08698Z" fill-rule="nonzero"/><path fill="#000000" fill-opacity="0.0" clip-path="url(#id_0)" d="M567.16345 305.20618C567.16345 306.863 565.8203 308.20618 564.16345 308.20618C562.5066 308.20618 561.16345 306.863 561.16345 305.20618C561.16345 303.54932 562.5066 302.20618 564.16345 302.20618C565.8203 302.20618 567.16345 303.54932 567.16345 305.20618Z" fill-rule="nonzero"/><path fill="#000000" fill-opacity="0.0" clip-path="url(#id_0)" d="M583.88464 314.32535C583.88464 315.9822 582.54144 317.32535 580.88464 317.32535C579.2278 317.32535 577.88464 315.9822 577.88464 314.32535C577.88464 312.6685 579.2278 311.32535 580.88464 311.32535C582.54144 311.32535 583.88464 312.6685 583.88464 314.32535Z" fill-rule="nonzero"/><path fill="#000000" fill-opacity="0.0" clip-path="url(#id_0)" d="M600.6058 323.44452C600.6058 325.10138 599.26263 326.44452 597.6058 326.44452C595.9489 326.44452 594.6058 325.10138 594.6058 323.44452C594.6058 321.78766 595.9489 320.44452 597.6058 320.44452C599.26263 320.44452 600.6058 321.78766 600.6058 323.44452Z" fill-rule="nonzero"/><path fill="#000000" fill-opacity="0.0" clip-path="url(#id_0)" d="M617.3269 332.5637C617.3269 334.22055 615.98376 335.5637 614.3269 335.5637C612.67004 335.5637 611.3269 334.22055 611.3269 332.5637C611.3269 330.90683 612.67004 329.5637 614.3269 329.5637C615.98376 329.5637 617.3269 330.90683 617.3269 332.5637Z" fill-rule="nonzero"/><path fill="#000000" fill-opacity="0.0" clip-path="url(#id_0)" d="M634.0481 341.6829C634.0481 343.33972 632.70496 344.6829 631.0481 344.6829C629.39124 344.6829 628.0481 343.33972 628.0481 341.6829C628.0481 340.02603 629.39124 338.6829 631.0481 338.6829C632.70496 338.6829 634.0481 340.02603 634.0481 341.6829Z" fill-rule="nonzero"/><path fill="#000000" fill-opacity="0.0" clip-path="url(#id_0)" d="M650.7692 350.80206C650.7692 352.45892 649.4261 353.80206 647.7692 353.80206C646.11237 353.80206 644.7692 352.45892 644.7692 350.80206C644.7692 349.1452 646.11237 347.80206 647.7692 347.80206C649.4261 347.80206 650.7692 349.1452 650.7692 350.80206Z" fill-rule="nonzero"/><path fill="#000000" fill-opacity="0.0" clip-path="url(#id_0)" d="M667.49036 359.92123C667.49036 361.5781 666.1472 362.92123 664.49036 362.92123C662.83356 362.92123 661.49036 361.5781 661.49036 359.92123C661.49036 358.26437 662.83356 356.92123 664.49036 356.92123C666.1472 356.92123 667.49036 358.26437 667.49036 359.92123Z" fill-rule="nonzero"/><path fill="#000000" fill-opacity="0.0" clip-path="url(#id_0)" d="M684.21155 369.0404C684.21155 370.69727 682.8684 372.0404 681.21155 372.0404C679.5547 372.0404 678.21155 370.69727 678.21155 369.0404C678.21155 367.38354 679.5547 366.0404 681.21155 366.0404C682.8684 366.0404 684.21155 367.38354 684.21155 369.0404Z" fill-rule="nonzero"/><path fill="#000000" fill-opacity="0.0" clip-path="url(#id_0)" d="M700.9327 378.15958C700.9327 379.81644 699.58954 381.15958 697.9327 381.15958C696.2758 381.15958 694.9327 379.81644 694.9327 378.15958C694.9327 376.50275 696.2758 375.15958 697.9327 375.15958C699.58954 375.15958 700.9327 376.50275 700.9327 378.15958Z" fill-rule="nonzero"/><path fill="#000000" fill-opacity="0.0" clip-path="url(#id_0)" d="M717.6539 387.27878C717.6539 388.9356 716.3107 390.27878 714.6539 390.27878C712.997 390.27878 711.6539 388.9356 711.6539 387.27878C711.6539 385.62192 712.997 384.27878 714.6539 384.27878C716.3107 384.27878 717.6539 385.62192 717.6539 387.27878Z" fill-rule="nonzero"/><path fill="#000000" fill-opacity="0.0" clip-path="url(#id_0)" d="M734.375 396.39795C734.375 398.0548 733.03186 399.39795 731.375 399.39795C729.71814 399.39795 728.375 398.0548 728.375 396.39795C728.375 394.7411 729.71814 393.39795 731.375 393.39795C733.03186 393.39795 734.375 394.7411 734.375 396.39795Z" fill-rule="nonzero"/><path fill="#000000" fill-opacity="0.0" clip-path="url(#id_0)" d="M751.0961 405.51712C751.0961 407.17398 749.753 408.51712 748.0961 408.51712C746.4393 408.51712 745.0961 407.17398 745.0961 405.51712C745.0961 403.86026 746.4393 402.51712 748.0961 402.51712C749.753 402.51712 751.0961 403.86026 751.0961 405.51712Z" fill-rule="nonzero"/><path fill="#000000" fill-opacity="0.0" clip-path="url(#id_0)" d="M767.8173 414.6363C767.8173 416.29315 766.4742 417.6363 764.8173 417.6363C763.16046 417.6363 761.8173 416.29315 761.8173 414.6363C761.8173 412.97946 763.16046 411.6363 764.8173 411.6363C766.4742 411.6363 767.8173 412.97946 767.8173 414.6363Z" fill-rule="nonzero"/><path fill="#000000" fill-opacity="0.0" clip-path="url(#id_0)" d="M784.53845 423.7555C784.53845 425.41232 783.1953 426.7555 781.53845 426.7555C779.8816 426.7555 778.53845 425.41232 778.53845 423.7555C778.53845 422.09863 779.8816 420.7555 781.53845 420.7555C783.1953 420.7555 784.53845 422.09863 784.53845 423.7555Z" fill-rule="nonzero"/><path fill="#000000" fill-opacity="0.0" clip-path="url(#id_0)" d="M801.25964 432.87466C801.25964 434.53152 799.91644 435.87466 798.25964 435.87466C796.6028 435.87466 795.25964 434.53152 795.25964 432.87466C795.25964 431.2178 796.6028 429.87466 798.25964 429.87466C799.91644 429.87466 801.25964 431.2178 801.25964 432.87466Z" fill-rule="nonzero"/><path fill="#000000" fill-opacity="0.0" clip-path="url(#id_0)" d="M817.9808 441.99384C817.9808 443.6507 816.63763 444.99384 814.9808 444.99384C813.3239 444.99384 811.9808 443.6507 811.9808 441.99384C811.9808 440.33698 813.3239 438.99384 814.9808 438.99384C816.63763 438.99384 817.9808 440.33698 817.9808 441.99384Z" fill-rule="nonzero"/><path fill="#000000" fill-opacity="0.0" clip-path="url(#id_0)" d="M834.7019 451.113C834.7019 452.76987 833.35876 454.113 831.7019 454.113C830.04504 454.113 828.7019 452.76987 828.7019 451.113C828.7019 449.45615 830.04504 448.113 831.7019 448.113C833.35876 448.113 834.7019 449.45615 834.7019 451.113Z" fill-rule="nonzero"/><path fill="#000000" fill-opacity="0.0" clip-path="url(#id_0)" d="M851.4231 460.23218C851.4231 461.88904 850.07996 463.23218 848.4231 463.23218C846.76624 463.23218 845.4231 461.88904 845.4231 460.23218C845.4231 458.57535 846.76624 457.23218 848.4231 457.23218C850.07996 457.23218 851.4231 458.57535 851.4231 460.23218Z" fill-rule="nonzero"/><path fill="#000000" fill-opacity="0.0" clip-path="url(#id_0)" d="M868.1442 469.35138C868.1442 471.0082 866.8011 472.35138 865.1442 472.35138C863.48737 472.35138 862.1442 471.0082 862.1442 469.35138C862.1442 467.69452 863.48737 466.35138 865.1442 466.35138C866.8011 466.35138 868.1442 467.69452 868.1442 469.35138Z" fill-rule="nonzero"/><path fill="#000000" fill-opacity="0.0" clip-path="url(#id_0)" d="M884.86536 478.47055C884.86536 480.1274 883.5222 481.47055 881.86536 481.47055C880.20856 481.47055 878.86536 480.1274 878.86536 478.47055C878.86536 476.8137 880.20856 475.47055 881.86536 475.47055C883.5222 475.47055 884.86536 476.8137 884.86536 478.47055Z" fill-rule="nonzero"/><path fill="#000000" fill-opacity="0.0" clip-path="url(#id_0)" d="M901.58655 487.58972C901.58655 489.24658 900.2434 490.58972 898.58655 490.58972C896.9297 490.58972 895.58655 489.24658 895.58655 487.58972C895.58655 485.93286 896.9297 484.58972 898.58655 484.58972C900.2434 484.58972 901.58655 485.93286 901.58655 487.58972Z" fill-rule="nonzero"/><path fill="#000000" fill-opacity="0.0" clip-path="url(#id_0)" d="M918.3077 496.7089C918.3077 498.36575 916.96454 499.7089 915.3077 499.7089C913.6508 499.7089 912.3077 498.36575 912.3077 496.7089C912.3077 495.05206 913.6508 493.7089 915.3077 493.7089C916.96454 493.7089 918.3077 495.05206 918.3077 496.7089Z" fill-rule="nonzero"/><path fill="#000000" fill-opacity="0.0" clip-path="url(#id_0)" d="M935.0289 505.8281C935.0289 507.48492 933.6857 508.8281 932.0289 508.8281C930.372 508.8281 929.0289 507.48492 929.0289 505.8281C929.0289 504.17123 930.372 502.8281 932.0289 502.8281C933.6857 502.8281 935.0289 504.17123 935.0289 505.8281Z" fill-rule="nonzero"/><path fill="#000000" fill-opacity="0.0" clip-path="url(#id_0)" d="M951.75 514.94727C951.75 516.6041 950.40686 517.94727 948.75 517.94727C947.09314 517.94727 945.75 516.6041 945.75 514.94727C945.75 513.2904 947.09314 511.94727 948.75 511.94727C950.40686 511.94727 951.75 513.2904 951.75 514.94727Z" fill-rule="nonzero"/><path fill="#000000" d="M498.67188 570.75L498.67188 559.3906L494.42188 559.3906L494.42188 557.8594L504.64062 557.8594L504.64062 559.3906L500.375 559.3906L500.375 570.75L498.67188 570.75ZM507.20312 559.6875L507.20312 557.8594L508.78125 557.8594L508.78125 559.6875L507.20312 559.6875ZM507.20312 570.75L507.20312 561.4219L508.78125 561.4219L508.78125 570.75L507.20312 570.75ZM511.1875 570.75L511.1875 561.4219L512.6094 561.4219L512.6094 562.71875Q513.0469 562.0469 513.7656 561.625Q514.5 561.2031 515.4375 561.2031Q516.46875 561.2031 517.125 561.6406Q517.7969 562.0625 518.0625 562.84375Q519.1719 561.2031 520.9531 561.2031Q522.34375 561.2031 523.0781 561.9844Q523.8281 562.75 523.8281 564.34375L523.8281 570.75L522.2656 570.75L522.2656 564.875Q522.2656 563.9219 522.1094 563.5Q521.9531 563.0781 521.5469 562.8281Q521.1406 562.5781 520.59375 562.5781Q519.6094 562.5781 518.9531 563.2344Q518.3125 563.8906 518.3125 565.3281L518.3125 570.75L516.7344 570.75L516.7344 564.6875Q516.7344 563.625 516.34375 563.1094Q515.9531 562.5781 515.0781 562.5781Q514.40625 562.5781 513.84375 562.9375Q513.28125 563.28125 513.0156 563.9531Q512.7656 564.625 512.7656 565.90625L512.7656 570.75L511.1875 570.75ZM531.5781 567.75L533.21875 567.9531Q532.8281 569.375 531.78125 570.1719Q530.7344 570.96875 529.1094 570.96875Q527.0625 570.96875 525.8594 569.7031Q524.65625 568.4375 524.65625 566.15625Q524.65625 563.8125 525.8594 562.5156Q527.0781 561.2031 529.0156 561.2031Q530.8906 561.2031 532.0781 562.4844Q533.2656 563.75 533.2656 566.0625Q533.2656 566.2031 533.25 566.4844L526.2969 566.4844Q526.375 568.03125 527.15625 568.84375Q527.9531 569.65625 529.1094 569.65625Q529.9844 569.65625 530.59375 569.2031Q531.21875 568.75 531.5781 567.75ZM526.375 565.1875L531.59375 565.1875Q531.4844 564.0156 531.0 563.4219Q530.2344 562.5 529.03125 562.5Q527.9531 562.5 527.2031 563.2344Q526.46875 563.96875 526.375 565.1875Z" fill-rule="nonzero"/><path fill="#000000" d="M61.0 516.3906Q61.0 514.1094 61.46875 512.71875Q61.9375 511.32812 62.859375 510.57812Q63.796875 509.8125 65.203125 509.8125Q66.234375 509.8125 67.015625 510.23438Q67.796875 510.64062 68.296875 511.4375Q68.8125 512.21875 69.109375 513.3594Q69.40625 514.4844 69.40625 516.3906Q69.40625 518.65625 68.9375 520.0625Q68.46875 521.4531 67.53125 522.21875Q66.609375 522.96875 65.203125 522.96875Q63.328125 522.96875 62.265625 521.6406Q61.0 520.03125 61.0 516.3906ZM62.625 516.3906Q62.625 519.5625 63.359375 520.625Q64.109375 521.6719 65.203125 521.6719Q66.28125 521.6719 67.03125 520.625Q67.78125 519.5625 67.78125 516.3906Q67.78125 513.21875 67.03125 512.1719Q66.28125 511.125 65.1875 511.125Q64.09375 511.125 63.4375 512.0469Q62.625 513.21875 62.625 516.3906Z" fill-rule="nonzero"/><path fill="#000000" d="M49.3125 402.35938L49.3125 403.875L40.796875 403.875Q40.78125 403.29688 40.984375 402.78125Q41.3125 401.90625 42.015625 401.0625Q42.734375 400.21875 44.09375 399.10938Q46.1875 397.39062 46.921875 396.39062Q47.671875 395.375 47.671875 394.48438Q47.671875 393.53125 47.0 392.89062Q46.328125 392.25 45.25 392.25Q44.09375 392.25 43.40625 392.9375Q42.734375 393.625 42.71875 394.82812L41.09375 394.65625Q41.265625 392.84375 42.34375 391.89062Q43.4375 390.9375 45.28125 390.9375Q47.125 390.9375 48.203125 391.96875Q49.296875 393.0 49.296875 394.51562Q49.296875 395.28125 48.96875 396.03125Q48.65625 396.78125 47.921875 397.60938Q47.1875 398.4375 45.484375 399.875Q44.0625 401.07812 43.65625 401.5Q43.25 401.92188 43.0 402.35938L49.3125 402.35938ZM51.0 400.5L52.65625 400.35938Q52.84375 401.57812 53.515625 402.1875Q54.1875 402.79688 55.140625 402.79688Q56.28125 402.79688 57.0625 401.9375Q57.859375 401.07812 57.859375 399.64062Q57.859375 398.29688 57.09375 397.51562Q56.34375 396.73438 55.109375 396.73438Q54.34375 396.73438 53.71875 397.07812Q53.109375 397.42188 52.765625 397.98438L51.28125 397.78125L52.53125 391.17188L58.9375 391.17188L58.9375 392.67188L53.796875 392.67188L53.09375 396.14062Q54.265625 395.32812 55.53125 395.32812Q57.21875 395.32812 58.375 396.5Q59.546875 397.67188 59.546875 399.5Q59.546875 401.25 58.515625 402.53125Q57.28125 404.09375 55.140625 404.09375Q53.375 404.09375 52.265625 403.10938Q51.15625 402.125 51.0 400.5ZM61.0 397.51562Q61.0 395.23438 61.46875 393.84375Q61.9375 392.45312 62.859375 391.70312Q63.796875 390.9375 65.203125 390.9375Q66.234375 390.9375 67.015625 391.35938Q67.796875 391.76562 68.296875 392.5625Q68.8125 393.34375 69.109375 394.48438Q69.40625 395.60938 69.40625 397.51562Q69.40625 399.78125 68.9375 401.1875Q68.46875 402.57812 67.53125 403.34375Q66.609375 404.09375 65.203125 404.09375Q63.328125 404.09375 62.265625 402.76562Q61.0 401.15625 61.0 397.51562ZM62.625 397.51562Q62.625 400.6875 63.359375 401.75Q64.109375 402.79688 65.203125 402.79688Q66.28125 402.79688 67.03125 401.75Q67.78125 400.6875 67.78125 397.51562Q67.78125 394.34375 67.03125 393.29688Q66.28125 392.25 65.1875 392.25Q64.09375 392.25 63.4375 393.17188Q62.625 394.34375 62.625 397.51562Z" fill-rule="nonzero"/><path fill="#000000" d="M41.0 281.625L42.65625 281.48438Q42.84375 282.70312 43.515625 283.3125Q44.1875 283.92188 45.140625 283.92188Q46.28125 283.92188 47.0625 283.0625Q47.859375 282.20312 47.859375 280.76562Q47.859375 279.42188 47.09375 278.64062Q46.34375 277.85938 45.109375 277.85938Q44.34375 277.85938 43.71875 278.20312Q43.109375 278.54688 42.765625 279.10938L41.28125 278.90625L42.53125 272.29688L48.9375 272.29688L48.9375 273.79688L43.796875 273.79688L43.09375 277.26562Q44.265625 276.45312 45.53125 276.45312Q47.21875 276.45312 48.375 277.625Q49.546875 278.79688 49.546875 280.625Q49.546875 282.375 48.515625 283.65625Q47.28125 285.21875 45.140625 285.21875Q43.375 285.21875 42.265625 284.23438Q41.15625 283.25 41.0 281.625ZM51.0 278.64062Q51.0 276.35938 51.46875 274.96875Q51.9375 273.57812 52.859375 272.82812Q53.796875 272.0625 55.203125 272.0625Q56.234375 272.0625 57.015625 272.48438Q57.796875 272.89062 58.296875 273.6875Q58.8125 274.46875 59.109375 275.60938Q59.40625 276.73438 59.40625 278.64062Q59.40625 280.90625 58.9375 282.3125Q58.46875 283.70312 57.53125 284.46875Q56.609375 285.21875 55.203125 285.21875Q53.328125 285.21875 52.265625 283.89062Q51.0 282.28125 51.0 278.64062ZM52.625 278.64062Q52.625 281.8125 53.359375 282.875Q54.109375 283.92188 55.203125 283.92188Q56.28125 283.92188 57.03125 282.875Q57.78125 281.8125 57.78125 278.64062Q57.78125 275.46875 57.03125 274.42188Q56.28125 273.375 55.1875 273.375Q54.09375 273.375 53.4375 274.29688Q52.625 275.46875 52.625 278.64062ZM61.0 278.64062Q61.0 276.35938 61.46875 274.96875Q61.9375 273.57812 62.859375 272.82812Q63.796875 272.0625 65.203125 272.0625Q66.234375 272.0625 67.015625 272.48438Q67.796875 272.89062 68.296875 273.6875Q68.8125 274.46875 69.109375 275.60938Q69.40625 276.73438 69.40625 278.64062Q69.40625 280.90625 68.9375 282.3125Q68.46875 283.70312 67.53125 284.46875Q66.609375 285.21875 65.203125 285.21875Q63.328125 285.21875 62.265625 283.89062Q61.0 282.28125 61.0 278.64062ZM62.625 278.64062Q62.625 281.8125 63.359375 282.875Q64.109375 283.92188 65.203125 283.92188Q66.28125 283.92188 67.03125 282.875Q67.78125 281.8125 67.78125 278.64062Q67.78125 275.46875 67.03125 274.42188Q66.28125 273.375 65.1875 273.375Q64.09375 273.375 63.4375 274.29688Q62.625 275.46875 62.625 278.64062Z" fill-rule="nonzero"/><path fill="#000000" d="M41.109375 154.92188L41.109375 153.40625L49.4375 153.40625L49.4375 154.64062Q48.21875 155.95312 47.0 158.125Q45.796875 160.28125 45.140625 162.57812Q44.65625 164.20312 44.53125 166.125L42.90625 166.125Q42.9375 164.60938 43.5 162.45312Q44.078125 160.29688 45.140625 158.29688Q46.203125 156.29688 47.40625 154.92188L41.109375 154.92188ZM51.0 162.75L52.65625 162.60938Q52.84375 163.82812 53.515625 164.4375Q54.1875 165.04688 55.140625 165.04688Q56.28125 165.04688 57.0625 164.1875Q57.859375 163.32812 57.859375 161.89062Q57.859375 160.54688 57.09375 159.76562Q56.34375 158.98438 55.109375 158.98438Q54.34375 158.98438 53.71875 159.32812Q53.109375 159.67188 52.765625 160.23438L51.28125 160.03125L52.53125 153.42188L58.9375 153.42188L58.9375 154.92188L53.796875 154.92188L53.09375 158.39062Q54.265625 157.57812 55.53125 157.57812Q57.21875 157.57812 58.375 158.75Q59.546875 159.92188 59.546875 161.75Q59.546875 163.5 58.515625 164.78125Q57.28125 166.34375 55.140625 166.34375Q53.375 166.34375 52.265625 165.35938Q51.15625 164.375 51.0 162.75ZM61.0 159.76562Q61.0 157.48438 61.46875 156.09375Q61.9375 154.70312 62.859375 153.95312Q63.796875 153.1875 65.203125 153.1875Q66.234375 153.1875 67.015625 153.60938Q67.796875 154.01562 68.296875 154.8125Q68.8125 155.59375 69.109375 156.73438Q69.40625 157.85938 69.40625 159.76562Q69.40625 162.03125 68.9375 163.4375Q68.46875 164.82812 67.53125 165.59375Q66.609375 166.34375 65.203125 166.34375Q63.328125 166.34375 62.265625 165.01562Q61.0 163.40625 61.0 159.76562ZM62.625 159.76562Q62.625 162.9375 63.359375 164.0Q64.109375 165.04688 65.203125 165.04688Q66.28125 165.04688 67.03125 164.0Q67.78125 162.9375 67.78125 159.76562Q67.78125 156.59375 67.03125 155.54688Q66.28125 154.5 65.1875 154.5Q64.09375 154.5 63.4375 155.42188Q62.625 156.59375 62.625 159.76562Z" fill-rule="nonzero"/><path fill="#000000" d="M36.953125 47.25L35.375 47.25L35.375 37.171875Q34.796875 37.71875 33.875 38.265625Q32.953125 38.796875 32.203125 39.078125L32.203125 37.546875Q33.53125 36.921875 34.53125 36.03125Q35.53125 35.140625 35.9375 34.3125L36.953125 34.3125L36.953125 47.25ZM41.0 40.890625Q41.0 38.609375 41.46875 37.21875Q41.9375 35.828125 42.859375 35.078125Q43.796875 34.3125 45.203125 34.3125Q46.234375 34.3125 47.015625 34.734375Q47.796875 35.140625 48.296875 35.9375Q48.8125 36.71875 49.109375 37.859375Q49.40625 38.984375 49.40625 40.890625Q49.40625 43.15625 48.9375 44.5625Q48.46875 45.953125 47.53125 46.71875Q46.609375 47.46875 45.203125 47.46875Q43.328125 47.46875 42.265625 46.140625Q41.0 44.53125 41.0 40.890625ZM42.625 40.890625Q42.625 44.0625 43.359375 45.125Q44.109375 46.171875 45.203125 46.171875Q46.28125 46.171875 47.03125 45.125Q47.78125 44.0625 47.78125 40.890625Q47.78125 37.71875 47.03125 36.671875Q46.28125 35.625 45.1875 35.625Q44.09375 35.625 43.4375 36.546875Q42.625 37.71875 42.625 40.890625ZM51.0 40.890625Q51.0 38.609375 51.46875 37.21875Q51.9375 35.828125 52.859375 35.078125Q53.796875 34.3125 55.203125 34.3125Q56.234375 34.3125 57.015625 34.734375Q57.796875 35.140625 58.296875 35.9375Q58.8125 36.71875 59.109375 37.859375Q59.40625 38.984375 59.40625 40.890625Q59.40625 43.15625 58.9375 44.5625Q58.46875 45.953125 57.53125 46.71875Q56.609375 47.46875 55.203125 47.46875Q53.328125 47.46875 52.265625 46.140625Q51.0 44.53125 51.0 40.890625ZM52.625 40.890625Q52.625 44.0625 53.359375 45.125Q54.109375 46.171875 55.203125 46.171875Q56.28125 46.171875 57.03125 45.125Q57.78125 44.0625 57.78125 40.890625Q57.78125 37.71875 57.03125 36.671875Q56.28125 35.625 55.1875 35.625Q54.09375 35.625 53.4375 36.546875Q52.625 37.71875 52.625 40.890625ZM61.0 40.890625Q61.0 38.609375 61.46875 37.21875Q61.9375 35.828125 62.859375 35.078125Q63.796875 34.3125 65.203125 34.3125Q66.234375 34.3125 67.015625 34.734375Q67.796875 35.140625 68.296875 35.9375Q68.8125 36.71875 69.109375 37.859375Q69.40625 38.984375 69.40625 40.890625Q69.40625 43.15625 68.9375 44.5625Q68.46875 45.953125 67.53125 46.71875Q66.609375 47.46875 65.203125 47.46875Q63.328125 47.46875 62.265625 46.140625Q61.0 44.53125 61.0 40.890625ZM62.625 40.890625Q62.625 44.0625 63.359375 45.125Q64.109375 46.171875 65.203125 46.171875Q66.28125 46.171875 67.03125 45.125Q67.78125 44.0625 67.78125 40.890625Q67.78125 37.71875 67.03125 36.671875Q66.28125 35.625 65.1875 35.625Q64.09375 35.625 63.4375 36.546875Q62.625 37.71875 62.625 40.890625Z" fill-rule="nonzero"/></svg>